<?xml version="1.0" encoding="utf-8"?>
<!-- Generator: Adobe Illustrator 24.3.0, SVG Export Plug-In . SVG Version: 6.00 Build 0)  -->
<svg version="1.1" id="Layer_1" xmlns="http://www.w3.org/2000/svg" xmlns:xlink="http://www.w3.org/1999/xlink" x="0px" y="0px"
	 viewBox="0 0 180 180" enable-background="new 0 0 180 180" xml:space="preserve">
<g>
	<g id="XMLID_1069_">
		<path fill="#FF916E" d="M154.622,90.001c0,35.689-28.934,64.621-64.622,64.621c-35.688,0-64.622-28.932-64.622-64.621
			c0-35.691,28.935-64.623,64.622-64.623C125.689,25.378,154.622,54.31,154.622,90.001z"/>
	</g>
	<g>
		<path fill="#FFDB76" d="M113.847,109.743c0,5.914-8.877,10.711-19.828,10.711c-10.949,0-19.828-4.797-19.828-10.711
			c0-5.916,8.879-10.711,19.828-10.711C104.97,99.032,113.847,103.827,113.847,109.743z"/>
	</g>
	<g>
		<path fill="#FFFFFF" d="M84.435,104.671c3.477,1.982,6.857,0.225,14.835-0.174c7.979-0.4,8.787,5.373,0.609,5.973
			c-8.177,0.598-9.962,2.279-7.742,3.752c2.039,1.351,14.437,2.717,18.91-1.756l6.273-6.271c0,0,0.01-0.006,0.029-0.014
			c0.717-0.686,1.709-0.92,2.611-0.703c0.488,0.117,0.951,0.367,1.332,0.748c0.395,0.396,0.65,0.877,0.76,1.385
			c0.201,0.91-0.051,1.898-0.76,2.607c-0.062,0.062-0.127,0.121-0.193,0.174l-8.715,8.717c0,0-1.529,2-5.438,2.02
			c-2.701,0.012-10.723,1.371-10.723,1.371s-3.091,1.098-6.281,0.199c-3.191-0.896-8.029-2.941-11.57-4.787
			c-3.541-1.844-10.57,8.379-10.57,8.379l-9.925-9.926l12.665-12.666C70.545,103.698,74.984,99.286,84.435,104.671z"/>
	</g>
	<g>
		<path fill="#333333" d="M73.162,126.929l-17.699,17.699c-6.578-4.168-12.355-9.492-17.04-15.689l18.375-18.373L73.162,126.929z"/>
	</g>
	<g>
		<g>
			<g>
				<g>
					<path fill="#333333" d="M91.392,103.556c-0.219,0-0.436-0.092-0.586-0.27c-0.066-0.08-1.633-1.953-2.418-5.213
						c-0.719-2.978-0.896-7.744,2.334-13.516c5.75-10.275,0.029-22.984-0.029-23.111c-0.176-0.385-0.006-0.842,0.379-1.018
						c0.383-0.178,0.84-0.01,1.018,0.375c0.062,0.137,1.557,3.412,2.316,8.07c1.013,6.203,0.203,11.885-2.344,16.434
						c-2.381,4.256-3.121,8.404-2.197,12.328c0.688,2.932,2.1,4.643,2.115,4.658c0.27,0.324,0.23,0.811-0.094,1.082
						C91.742,103.497,91.566,103.556,91.392,103.556z"/>
				</g>
				<g>
					<path fill="#333333" d="M89.359,90.964c-0.121,0-0.248-0.029-0.363-0.092c-0.373-0.203-0.514-0.668-0.311-1.043
						c0.152-0.279,3.771-6.881,8.861-8.191c1.945-0.5,3.84-0.17,5.635,0.984c0.355,0.229,0.461,0.703,0.23,1.061
						c-0.229,0.355-0.705,0.461-1.062,0.23c-1.438-0.926-2.885-1.184-4.418-0.789c-4.449,1.145-7.861,7.373-7.894,7.436
						C89.896,90.817,89.633,90.964,89.359,90.964z"/>
				</g>
				<g>
					<path fill="#333333" d="M93.951,72.165c-0.334,0-0.639-0.217-0.736-0.551c-0.02-0.059-1.496-4.92-4.916-6.457
						c-1.568-0.703-3.348-0.6-5.289,0.312c-0.383,0.18-0.84,0.014-1.02-0.371c-0.18-0.383-0.016-0.842,0.367-1.021
						c2.367-1.109,4.58-1.217,6.578-0.318c4.066,1.832,5.684,7.193,5.752,7.422c0.119,0.406-0.113,0.832-0.521,0.953
						C94.093,72.155,94.021,72.165,93.951,72.165z"/>
				</g>
			</g>
			<g>
				<g>
					<path fill="#FFCD50" d="M105.033,92.972c2.859,0,5.178-2.318,5.178-5.178c0-2.859-2.318-5.178-5.178-5.178
						s-5.178,2.318-5.178,5.178C99.855,90.653,102.173,92.972,105.033,92.972z"/>
				</g>
				<g>
					<path fill-rule="evenodd" clip-rule="evenodd" fill="#FFFFFF" d="M105.212,87.286c-0.799-0.242-0.971-0.367-0.971-0.701
						c0-0.342,0.545-0.432,0.865-0.432c0.305,0,0.67,0.098,0.885,0.236c0.086,0.057,0.201,0.031,0.258-0.057l0.404-0.625
						c0.057-0.086,0.031-0.203-0.057-0.258c-0.297-0.193-0.691-0.332-1.098-0.387v-0.387c0-0.104-0.084-0.188-0.186-0.188h-0.746
						c-0.104,0-0.188,0.084-0.188,0.188v0.447c-0.779,0.205-1.258,0.756-1.258,1.461c0,1.236,1.062,1.559,1.766,1.77
						c0.754,0.23,0.906,0.334,0.904,0.619c0,0.314-0.52,0.398-0.826,0.398c-0.377,0-0.801-0.17-1.031-0.412
						c-0.033-0.035-0.08-0.057-0.131-0.059c-0.049-0.002-0.098,0.016-0.133,0.051l-0.541,0.514c-0.076,0.07-0.08,0.188-0.008,0.262
						c0.314,0.334,0.768,0.584,1.258,0.695v0.426c0,0.104,0.084,0.188,0.188,0.188h0.746c0.102,0,0.186-0.084,0.186-0.188v-0.404
						c0.865-0.162,1.412-0.725,1.412-1.467C106.921,87.804,105.892,87.491,105.212,87.286z"/>
				</g>
				<g>
					<g>
						<path fill-rule="evenodd" clip-rule="evenodd" fill="#FFDB76" d="M105.034,81.349c-3.561,0-6.443,2.887-6.443,6.445
							c0,3.561,2.883,6.445,6.443,6.445c3.561,0,6.445-2.885,6.445-6.445C111.48,84.235,108.595,81.349,105.034,81.349z
							 M105.034,92.931c-2.836,0-5.135-2.299-5.135-5.137c0-2.836,2.299-5.135,5.135-5.135c2.838,0,5.137,2.299,5.137,5.135
							C110.171,90.632,107.872,92.931,105.034,92.931z"/>
					</g>
				</g>
			</g>
			<g>
				<g>
					<path fill="#FFCD50" d="M78.986,74.507c2.557,0,4.629-2.072,4.629-4.629c0-2.555-2.072-4.625-4.629-4.625
						c-2.555,0-4.627,2.07-4.627,4.625C74.359,72.435,76.431,74.507,78.986,74.507z"/>
				</g>
				<g>
					<path fill-rule="evenodd" clip-rule="evenodd" fill="#FFFFFF" d="M79.146,69.425c-0.711-0.217-0.867-0.326-0.867-0.627
						c0-0.305,0.486-0.385,0.773-0.385c0.273,0,0.598,0.086,0.791,0.211c0.076,0.051,0.182,0.027,0.23-0.051l0.361-0.559
						c0.051-0.078,0.029-0.18-0.051-0.23c-0.266-0.172-0.617-0.295-0.98-0.346v-0.346c0-0.092-0.074-0.166-0.166-0.166H78.57
						c-0.09,0-0.166,0.074-0.166,0.166v0.4c-0.697,0.184-1.125,0.674-1.125,1.305c0,1.105,0.949,1.393,1.578,1.584
						c0.676,0.203,0.812,0.297,0.809,0.551c0,0.281-0.463,0.357-0.738,0.357c-0.338,0-0.715-0.15-0.922-0.369
						c-0.031-0.033-0.072-0.051-0.115-0.053c-0.045-0.002-0.088,0.016-0.121,0.045l-0.482,0.459
						c-0.068,0.062-0.07,0.168-0.008,0.236c0.283,0.299,0.688,0.52,1.125,0.621v0.379c0,0.094,0.076,0.168,0.166,0.168h0.668
						c0.092,0,0.166-0.074,0.166-0.168v-0.361c0.771-0.145,1.262-0.646,1.262-1.311C80.675,69.888,79.756,69.608,79.146,69.425z"/>
				</g>
				<g>
					<g>
						<path fill-rule="evenodd" clip-rule="evenodd" fill="#FFDB76" d="M78.99,64.12c-3.18,0-5.76,2.578-5.76,5.758
							c0,3.182,2.58,5.762,5.76,5.762c3.18,0,5.76-2.58,5.76-5.762C84.75,66.698,82.17,64.12,78.99,64.12z M78.99,74.47
							c-2.535,0-4.59-2.057-4.59-4.592c0-2.533,2.055-4.588,4.59-4.588c2.535,0,4.59,2.055,4.59,4.588
							C83.58,72.413,81.525,74.47,78.99,74.47z"/>
					</g>
				</g>
			</g>
			<g>
				<g>
					<circle fill="#FFCD50" cx="89.793" cy="55.505" r="5.029"/>
				</g>
				<g>
					<path fill-rule="evenodd" clip-rule="evenodd" fill="#FFFFFF" d="M89.967,55.011c-0.774-0.234-0.941-0.355-0.941-0.682
						c0-0.33,0.529-0.416,0.84-0.416c0.297-0.002,0.65,0.092,0.859,0.226c0.084,0.057,0.195,0.031,0.25-0.053l0.392-0.607
						c0.055-0.084,0.031-0.197-0.055-0.25c-0.289-0.188-0.67-0.322-1.064-0.377v-0.375c0-0.1-0.082-0.182-0.184-0.182H89.34
						c-0.098,0-0.18,0.082-0.18,0.182v0.434c-0.758,0.201-1.223,0.734-1.223,1.418c0,1.203,1.031,1.516,1.715,1.721
						c0.734,0.225,0.881,0.324,0.879,0.602c0,0.307-0.504,0.387-0.803,0.387c-0.365,0-0.777-0.164-1.002-0.4
						c-0.033-0.035-0.078-0.055-0.125-0.057c-0.049-0.002-0.096,0.016-0.131,0.049l-0.525,0.498
						c-0.074,0.068-0.078,0.184-0.008,0.256c0.307,0.324,0.746,0.566,1.223,0.676v0.412c0,0.102,0.082,0.182,0.18,0.182h0.725
						c0.102,0,0.184-0.08,0.184-0.182v-0.393c0.838-0.156,1.369-0.703,1.369-1.424C91.629,55.515,90.627,55.212,89.967,55.011z"/>
				</g>
				<g>
					<g>
						<path fill-rule="evenodd" clip-rule="evenodd" fill="#FFDB76" d="M89.795,49.245c-3.455,0-6.26,2.803-6.26,6.26
							c0,3.457,2.805,6.26,6.26,6.26c3.457,0,6.261-2.803,6.261-6.26C96.056,52.048,93.252,49.245,89.795,49.245z M89.795,60.493
							c-2.756,0-4.986-2.232-4.986-4.988c0-2.756,2.23-4.988,4.986-4.988c2.756,0,4.99,2.232,4.99,4.988
							C94.785,58.261,92.55,60.493,89.795,60.493z"/>
					</g>
				</g>
			</g>
			<g>
				<path fill="#333333" d="M80.666,89.478c0,0-0.928,5.504,7.652,5.504C88.318,94.981,88.049,88.917,80.666,89.478z"/>
			</g>
			<g>
				<path fill="#333333" d="M101.716,70.042c0,0,0.93,5.504-7.65,5.504C94.066,75.546,94.334,69.481,101.716,70.042z"/>
			</g>
		</g>
		<g>
			<g>
				<path fill="#333333" d="M128.917,94.532h-12.766c-0.213,0-0.385-0.17-0.385-0.383s0.172-0.385,0.385-0.385h12.766
					c0.211,0,0.383,0.172,0.383,0.385S129.128,94.532,128.917,94.532z"/>
			</g>
			<g>
				<path fill="#333333" d="M116.484,97.304h-2.061c-0.213,0-0.385-0.172-0.385-0.383c0-0.213,0.172-0.385,0.385-0.385h2.061
					c0.213,0,0.385,0.172,0.385,0.385C116.868,97.132,116.697,97.304,116.484,97.304z"/>
			</g>
			<g>
				<path fill="#333333" d="M113.075,97.304h-7.771c-0.215,0-0.385-0.172-0.385-0.383c0-0.213,0.17-0.385,0.385-0.385h7.771
					c0.211,0,0.385,0.172,0.385,0.385C113.46,97.132,113.286,97.304,113.075,97.304z"/>
			</g>
			<g>
				<path fill="#333333" d="M127.284,97.304H117.9c-0.211,0-0.383-0.172-0.383-0.383c0-0.213,0.172-0.385,0.383-0.385h9.385
					c0.211,0,0.385,0.172,0.385,0.385C127.669,97.132,127.495,97.304,127.284,97.304z"/>
			</g>
		</g>
		<g>
			<g>
				<path fill="#333333" d="M77.002,54.065h-10.17c-0.213,0-0.385-0.174-0.385-0.385c0-0.211,0.172-0.385,0.385-0.385h10.17
					c0.211,0,0.383,0.174,0.383,0.385C77.384,53.892,77.213,54.065,77.002,54.065z"/>
			</g>
			<g>
				<path fill="#333333" d="M64.939,51.294h-1.643c-0.214,0-0.385-0.172-0.385-0.383c0-0.213,0.171-0.385,0.385-0.385h1.643
					c0.211,0,0.383,0.172,0.383,0.385C65.322,51.122,65.15,51.294,64.939,51.294z"/>
			</g>
			<g>
				<path fill="#333333" d="M73.023,51.294h-6.191c-0.213,0-0.385-0.172-0.385-0.383c0-0.213,0.172-0.385,0.385-0.385h6.191
					c0.213,0,0.385,0.172,0.385,0.385C73.408,51.122,73.236,51.294,73.023,51.294z"/>
			</g>
			<g>
				<path fill="#333333" d="M62.168,51.294H54.69c-0.211,0-0.384-0.172-0.384-0.383c0-0.213,0.173-0.385,0.384-0.385h7.478
					c0.212,0,0.385,0.172,0.385,0.385C62.553,51.122,62.38,51.294,62.168,51.294z"/>
			</g>
		</g>
		<g>
			<path fill="#333333" d="M65.441,71.78h-4.225c-0.211,0-0.384-0.172-0.384-0.383c0-0.213,0.173-0.385,0.384-0.385h4.225
				c0.213,0,0.385,0.172,0.385,0.385C65.826,71.608,65.654,71.78,65.441,71.78z"/>
		</g>
		<g>
			<g>
				<path fill="#333333" d="M66.154,89.825H53.388c-0.213,0-0.384-0.172-0.384-0.385c0-0.211,0.171-0.385,0.384-0.385h12.766
					c0.211,0,0.383,0.174,0.383,0.385C66.537,89.653,66.365,89.825,66.154,89.825z"/>
			</g>
			<g>
				<path fill="#333333" d="M67.883,92.595H65.82c-0.213,0-0.383-0.172-0.383-0.385c0-0.211,0.17-0.383,0.383-0.383h2.063
					c0.211,0,0.383,0.172,0.383,0.383C68.265,92.423,68.093,92.595,67.883,92.595z"/>
			</g>
			<g>
				<path fill="#333333" d="M77.002,92.595h-7.773c-0.213,0-0.383-0.172-0.383-0.385c0-0.211,0.17-0.383,0.383-0.383h7.773
					c0.211,0,0.383,0.172,0.383,0.383C77.384,92.423,77.213,92.595,77.002,92.595z"/>
			</g>
			<g>
				<path fill="#333333" d="M64.404,92.595H55.02c-0.213,0-0.384-0.172-0.384-0.385c0-0.211,0.171-0.383,0.384-0.383h9.384
					c0.213,0,0.385,0.172,0.385,0.383C64.789,92.423,64.617,92.595,64.404,92.595z"/>
			</g>
		</g>
		<g>
			<g>
				<path fill="#333333" d="M113.169,60.886h-10.17c-0.213,0-0.385-0.172-0.385-0.385c0-0.211,0.172-0.383,0.385-0.383h10.17
					c0.211,0,0.385,0.172,0.385,0.383C113.554,60.714,113.38,60.886,113.169,60.886z"/>
			</g>
			<g>
				<path fill="#333333" d="M116.704,58.114h-1.643c-0.211,0-0.383-0.172-0.383-0.383c0-0.213,0.172-0.385,0.383-0.385h1.643
					c0.213,0,0.385,0.172,0.385,0.385C117.089,57.942,116.917,58.114,116.704,58.114z"/>
			</g>
			<g>
				<path fill="#333333" d="M113.169,58.114h-6.193c-0.211,0-0.385-0.172-0.385-0.383c0-0.213,0.174-0.385,0.385-0.385h6.193
					c0.211,0,0.385,0.172,0.385,0.385C113.554,57.942,113.38,58.114,113.169,58.114z"/>
			</g>
			<g>
				<path fill="#333333" d="M125.31,58.114h-7.477c-0.211,0-0.385-0.172-0.385-0.383c0-0.213,0.174-0.385,0.385-0.385h7.477
					c0.211,0,0.383,0.172,0.383,0.385C125.693,57.942,125.521,58.114,125.31,58.114z"/>
			</g>
		</g>
		<g>
			<path fill="#333333" d="M118.784,78.601h-4.225c-0.213,0-0.383-0.172-0.383-0.383c0-0.213,0.17-0.385,0.383-0.385h4.225
				c0.211,0,0.383,0.172,0.383,0.385C119.167,78.429,118.995,78.601,118.784,78.601z"/>
		</g>
	</g>
</g>
</svg>
